<svg width="16" height="16" viewBox="0 0 16 16" fill="none" xmlns="http://www.w3.org/2000/svg">
<path fill-rule="evenodd" clip-rule="evenodd" d="M9.1127 1.02928C8.19731 0.883142 7.26211 0.918729 6.36047 1.13401C5.45884 1.3493 4.60844 1.74006 3.85783 2.284C3.10721 2.82794 2.47109 3.51439 1.98577 4.30417C1.50044 5.09395 1.17543 5.97159 1.02929 6.88698C0.88315 7.80236 0.918737 8.73757 1.13402 9.6392C1.34931 10.5408 1.74007 11.3912 2.28401 12.1418C2.82795 12.8925 3.5144 13.5286 4.30418 14.0139C5.09396 14.4992 5.9716 14.8242 6.88698 14.9704C7.80237 15.1165 8.73758 15.0809 9.63921 14.8657C10.5408 14.6504 11.3912 14.2596 12.1419 13.7157C12.8925 13.1717 13.5286 12.4853 14.0139 11.6955C14.4992 10.9057 14.8242 10.0281 14.9704 9.11269C15.1165 8.19731 15.0809 7.2621 14.8657 6.36047C14.6504 5.45883 14.2596 4.60843 13.7157 3.85782C13.1717 3.10721 12.4853 2.47108 11.6955 1.98576C10.9057 1.50044 10.0281 1.17543 9.1127 1.02928ZM6.14189 0.218571C7.16374 -0.0254184 8.22364 -0.0657504 9.26108 0.0998779C10.2985 0.265506 11.2932 0.633851 12.1883 1.18388C13.0833 1.73391 13.8613 2.45486 14.4778 3.30555C15.0942 4.15625 15.5371 5.12003 15.7811 6.14188C16.0251 7.16373 16.0654 8.22364 15.8998 9.26107C15.7342 10.2985 15.3658 11.2932 14.8158 12.1882C14.2658 13.0833 13.5448 13.8613 12.6941 14.4778C11.8434 15.0942 10.8796 15.5371 9.85779 15.7811C8.83594 16.0251 7.77604 16.0654 6.7386 15.8998C5.70117 15.7342 4.70651 15.3658 3.81143 14.8158C2.91634 14.2658 2.13836 13.5448 1.5219 12.6941C0.905437 11.8434 0.462568 10.8796 0.218579 9.85778C-0.0254106 8.83593 -0.0657426 7.77603 0.0998862 6.73859C0.265514 5.70116 0.633859 4.7065 1.18389 3.81142C1.73392 2.91633 2.45486 2.13835 3.30556 1.52189C4.15625 0.905429 5.12004 0.46256 6.14189 0.218571ZM7.77467 4.24186C7.51524 4.25741 7.31753 4.48032 7.33307 4.73976C7.34862 4.99919 7.57153 5.1969 7.83096 5.18135L7.84036 5.18079C8.09979 5.16525 8.2975 4.94233 8.28196 4.6829C8.26641 4.42346 8.0435 4.22575 7.78406 4.2413L7.77467 4.24186ZM6.94776 6.17714C6.68833 6.19269 6.49062 6.4156 6.50616 6.67504C6.52171 6.93447 6.74462 7.13218 7.00406 7.11663L7.4738 7.08849L7.69899 10.8465C7.73008 11.3653 8.17591 11.7607 8.69478 11.7296L9.16452 11.7015C9.42396 11.686 9.62167 11.463 9.60612 11.2036C9.59057 10.9442 9.36766 10.7465 9.10823 10.762L8.63848 10.7902L8.4133 7.03219C8.3822 6.51332 7.93638 6.1179 7.41751 6.14899L6.94776 6.17714Z" fill="white"/>
</svg>
