<svg width="18" height="18" viewBox="0 0 18 18" fill="none" xmlns="http://www.w3.org/2000/svg">
<path d="M1.5 9L0.719131 8.3753L0.219375 9L0.719131 9.62469L1.5 9ZM8.25 10C8.80228 10 9.25 9.55228 9.25 9C9.25 8.44772 8.80228 8 8.25 8V10ZM3.71913 4.6253L0.719131 8.3753L2.28087 9.62469L5.28087 5.8747L3.71913 4.6253ZM0.719131 9.62469L3.71913 13.3747L5.28087 12.1253L2.28087 8.3753L0.719131 9.62469ZM1.5 10H8.25V8H1.5V10Z" fill="#E5E5E5"/>
<path d="M7.5 6.09895V5.95258C7.5 4.75758 7.5 4.16008 7.76634 3.69705C7.88689 3.48747 8.04444 3.30149 8.23135 3.14812C8.6443 2.80928 9.23367 2.71106 10.4124 2.5146V2.5146C12.8009 2.11652 13.9951 1.91749 14.884 2.3797C15.2819 2.58661 15.6284 2.88013 15.8979 3.23864C16.5 4.03948 16.5 5.25017 16.5 7.67157V10.3284C16.5 12.7498 16.5 13.9605 15.8979 14.7614C15.6284 15.1199 15.2819 15.4134 14.884 15.6203C13.9951 16.0825 12.8004 15.8834 10.411 15.4852V15.4852C9.23381 15.289 8.6452 15.1909 8.23267 14.853C8.04474 14.699 7.88643 14.5121 7.76549 14.3015C7.5 13.839 7.5 13.2425 7.5 12.0495V12.0495" stroke="#E5E5E5" stroke-width="2"/>
</svg>
